# xmcd
#
# Track frame offsets: 
#        182
#        48842
#        72035
#        99732
#        104762
#        133740
#        154117
#        160085
#        175517
#        193735
#        212012
#        230330
#        247005
#        258017
#        264655
#
# Disc length: 3879 seconds
#
# Revision: 7
# Processed by: cddbd v1.5.2PL0 Copyright (c) Steve Scherf et al.
# Submitted via: ExactAudioCopyFreeDBPlugin 1.0
#
DISCID=cd0f250f
DTITLE=James Brown - Sex Machine (Live)
DYEAR=1970
DGENRE=Soul
TTITLE0=Get Up (I Feel Like Being A) Sex Machine
TTITLE1=Brother Rapp (Part I and Part II)
TTITLE2=Bewildered
TTITLE3=I Got the Feelin'
TTITLE4=Give It Up or Turnit A Loose
TTITLE5=I Don't Want Nobody to Give Me Nothing (Open Up the Door I'll 
TTITLE5=Get it Myself)
TTITLE6=Licking Stick — Licking Stick
TTITLE7=Lowdown Popcorn
TTITLE8=Spinning Wheel
TTITLE9=If I Ruled the World
TTITLE10=There Was a Time
TTITLE11=It's a Man's Man's Man's World
TTITLE12=Please, Please, Please
TTITLE13=I Can't Stand Myself (When You Touch Me)
TTITLE14=Mother Popcorn
EXTD=
EXTT0=
EXTT1=
EXTT2=
EXTT3=
EXTT4=
EXTT5=
EXTT6=
EXTT7=
EXTT8=
EXTT9=
EXTT10=
EXTT11=
EXTT12=
EXTT13=
EXTT14=
PLAYORDER=
